PathFileType	4	(X/Y/Z)	/tmp/tmpl7bk8b07//results/MarkerData/Run_5.trc
DataRate	CameraRate	NumFrames	NumMarkers	Units	OrigDataRate	OrigDataStartFrame	OrigNumFrames
100	100	8	42	m	100	0	499
Frame#	Time	C7			CLAV			LACR			LASI			LCAL			LFAradius			LFAsuperior			LFAulna			LLEL			LMEL			LMT5			LPSI			LTB1			LTB2			LTB3			LTH1			LTH2			LTH3			LTOE			LUA1			LUA2			LUA3			RACR			RASI			RCAL			RFAradius			RFAsuperior			RFAulna			RLEL			RMEL			RMT5			RPSI			RTB1			RTB2			RTB3			RTH1			RTH2			RTH3			RTOE			RUA1			RUA2			RUA3		
		X1	Y1	Z1	X2	Y2	Z2	X3	Y3	Z3	X4	Y4	Z4	X5	Y5	Z5	X6	Y6	Z6	X7	Y7	Z7	X8	Y8	Z8	X9	Y9	Z9	X10	Y10	Z10	X11	Y11	Z11	X12	Y12	Z12	X13	Y13	Z13	X14	Y14	Z14	X15	Y15	Z15	X16	Y16	Z16	X17	Y17	Z17	X18	Y18	Z18	X19	Y19	Z19	X20	Y20	Z20	X21	Y21	Z21	X22	Y22	Z22	X23	Y23	Z23	X24	Y24	Z24	X25	Y25	Z25	X26	Y26	Z26	X27	Y27	Z27	X28	Y28	Z28	X29	Y29	Z29	X30	Y30	Z30	X31	Y31	Z31	X32	Y32	Z32	X33	Y33	Z33	X34	Y34	Z34	X35	Y35	Z35	X36	Y36	Z36	X37	Y37	Z37	X38	Y38	Z38	X39	Y39	Z39	X40	Y40	Z40	X41	Y41	Z41	X42	Y42	Z42

1	0.03	0.666263	1.50629	-0.305473	0.775034	1.42166	-0.248332	0.763613	1.46991	-0.454549	0.744425	1.00044	-0.424945	0.124422	0.246622	-0.34781	0.961436	1.1833	-0.443913	0.847539	1.1654	-0.558584	0.977032	1.12164	-0.476867	0.745425	1.1533	-0.60127	0.707112	1.13422	-0.53327	0.211827	0.0763286	-0.397865	0.569946	1.03912	-0.348311	0.40666	0.384522	-0.359564	0.314569	0.353422	-0.420709	0.299	0.272045	-0.353701	0.608195	0.827016	-0.47176	0.614415	0.689555	-0.444507	0.510631	0.606489	-0.429859	0.263785	0.0713194	-0.309375	0.743991	1.37972	-0.538342	0.689789	1.29487	-0.527129	0.721878	1.23542	-0.576453	0.698129	1.49738	-0.129652	0.732462	1.00988	-0.16355	0.706939	0.234423	-0.249723	0.616128	1.08512	-0.00823455	0.506626	1.19917	-0.010704	0.553932	1.04839	-0.0153933	0.441535	1.28045	-0.0434512	0.447709	1.26953	-0.126174	0.848156	0.13268	-0.159179	0.565128	1.03498	-0.244357	0.943489	0.46857	-0.228039	0.891659	0.427058	-0.168904	0.860934	0.318042	-0.227445	0.70422	0.830006	-0.120732	0.842272	0.790138	-0.130667	0.854709	0.665527	-0.166189	0.907212	0.127607	-0.244777	0.608453	1.45141	-0.0651187	0.533991	1.40658	-0.117071	0.522656	1.35726	-0.0561128
2	0.04	0.665927	1.5099	-0.305662	0.774731	1.42587	-0.246888	0.766042	1.47443	-0.452718	0.747645	1.00249	-0.422723	0.113835	0.275599	-0.352201	0.959403	1.1966	-0.432438	0.851638	1.17335	-0.551569	0.978611	1.13462	-0.463641	0.751649	1.15795	-0.597994	0.711518	1.1391	-0.532253	0.171636	0.09271	-0.399105	0.572658	1.04418	-0.347366	0.388809	0.399963	-0.360512	0.294964	0.369412	-0.42103	0.280359	0.287245	-0.357165	0.605213	0.832513	-0.469334	0.60451	0.696384	-0.445129	0.497792	0.61796	-0.427321	0.222052	0.0799426	-0.310665	0.749612	1.38493	-0.536634	0.694956	1.30052	-0.527242	0.727443	1.2406	-0.575118	0.696264	1.50088	-0.12946	0.735366	1.01561	-0.163211	0.756077	0.2048	-0.251436	0.607974	1.09245	-0.0122665	0.497891	1.20671	-0.0170028	0.545897	1.05574	-0.0212801	0.43443	1.28887	-0.0512218	0.442465	1.27878	-0.133591	0.910288	0.124693	-0.161331	0.569712	1.04057	-0.244387	0.956539	0.470697	-0.224038	0.913463	0.422331	-0.167353	0.894666	0.310532	-0.225396	0.705956	0.83889	-0.12274	0.842168	0.795462	-0.132373	0.85291	0.671525	-0.16701	0.966571	0.134466	-0.245906	0.60505	1.45702	-0.0672388	0.531452	1.41395	-0.121051	0.517489	1.36461	-0.0612302
3	0.05	0.665944	1.51307	-0.305775	0.7746	1.42964	-0.245651	0.767899	1.47834	-0.451229	0.749844	1.00468	-0.421003	0.104515	0.304073	-0.356412	0.956843	1.20653	-0.422165	0.855223	1.17973	-0.545324	0.979497	1.1449	-0.451711	0.757593	1.16192	-0.595597	0.715352	1.14323	-0.531662	0.132837	0.113423	-0.40022	0.574984	1.04888	-0.347069	0.374406	0.41198	-0.360851	0.279803	0.383529	-0.421882	0.26248	0.301839	-0.359749	0.603565	0.837207	-0.46716	0.598813	0.701998	-0.446199	0.489847	0.626345	-0.42581	0.181591	0.0933149	-0.310997	0.754015	1.38918	-0.535383	0.69916	1.3048	-0.527432	0.732613	1.24486	-0.574251	0.694827	1.50383	-0.129094	0.737887	1.02001	-0.163293	0.804568	0.177737	-0.252174	0.60184	1.09857	-0.0158275	0.491019	1.21296	-0.0226607	0.539989	1.06168	-0.0264434	0.428996	1.29563	-0.0585555	0.439083	1.28607	-0.140005	0.97022	0.12062	-0.163125	0.573115	1.0459	-0.244565	0.967191	0.470392	-0.221395	0.931535	0.41552	-0.165285	0.926305	0.302635	-0.222948	0.70727	0.846328	-0.124249	0.8416	0.799304	-0.133479	0.85082	0.673543	-0.165923	1.0222	0.143996	-0.246775	0.602437	1.46159	-0.0688568	0.529906	1.41987	-0.124565	0.513529	1.37045	-0.0659253
4	0.06	0.666429	1.51563	-0.305734	0.774761	1.43277	-0.244645	0.769204	1.48145	-0.45013	0.750968	1.00709	-0.419803	0.0956781	0.332206	-0.360406	0.953827	1.21253	-0.413175	0.858203	1.18409	-0.540005	0.979553	1.15177	-0.441414	0.763061	1.16502	-0.59416	0.718182	1.14643	-0.531442	0.0971683	0.138787	-0.40124	0.57698	1.05314	-0.34743	0.364145	0.420179	-0.360609	0.269936	0.396038	-0.423432	0.245825	0.316248	-0.361452	0.603523	0.840833	-0.465353	0.597858	0.7056	-0.446737	0.487927	0.630833	-0.425427	0.143676	0.112514	-0.310516	0.757023	1.39223	-0.534709	0.702301	1.30754	-0.527716	0.737223	1.24799	-0.573927	0.693988	1.50608	-0.128514	0.739841	1.02286	-0.163692	0.851037	0.154539	-0.251571	0.598265	1.10308	-0.0187427	0.486624	1.21749	-0.0273964	0.536732	1.06581	-0.0306398	0.42566	1.30026	-0.0650963	0.438087	1.29086	-0.145079	1.02563	0.121424	-0.164582	0.575278	1.05066	-0.244809	0.974905	0.467376	-0.22031	0.945088	0.406887	-0.162885	0.954827	0.29507	-0.220799	0.708008	0.851243	-0.124853	0.84046	0.800644	-0.13358	0.847709	0.670984	-0.163113	1.07211	0.156186	-0.247547	0.600857	1.46484	-0.0698024	0.529569	1.42391	-0.127352	0.511117	1.37441	-0.0699498
5	0.07	0.667434	1.51738	-0.305429	0.775355	1.43502	-0.243856	0.770109	1.48357	-0.449388	0.751255	1.00972	-0.419034	0.0862642	0.360697	-0.364164	0.950585	1.21455	-0.405342	0.860454	1.18608	-0.535626	0.9787	1.15471	-0.432966	0.767669	1.16706	-0.593525	0.719369	1.14863	-0.531339	0.067276	0.167949	-0.40226	0.578884	1.05686	-0.348161	0.35816	0.425257	-0.359999	0.265514	0.408003	-0.425708	0.231355	0.331413	-0.362483	0.605135	0.84312	-0.464062	0.601293	0.706384	-0.445401	0.492259	0.631054	-0.425917	0.110408	0.137713	-0.309761	0.758802	1.39398	-0.534632	0.704513	1.30897	-0.528103	0.741035	1.24987	-0.574091	0.693922	1.50749	-0.127716	0.741026	1.02418	-0.16414	0.892529	0.136556	-0.249514	0.597601	1.10562	-0.0208517	0.485225	1.21995	-0.0308562	0.53642	1.06789	-0.0336403	0.424646	1.30247	-0.0701558	0.439753	1.29285	-0.148444	1.07241	0.126954	-0.16591	0.576446	1.05434	-0.2449	0.979354	0.462123	-0.22059	0.95408	0.397827	-0.160734	0.97864	0.289182	-0.220379	0.707819	0.852016	-0.124082	0.838472	0.797938	-0.132327	0.842256	0.664117	-0.159751	1.11317	0.169802	-0.248655	0.600495	1.4666	-0.0699355	0.530469	1.42581	-0.129068	0.510467	1.37629	-0.072938
6	0.08	0.668834	1.51826	-0.304813	0.776385	1.4362	-0.243247	0.770694	1.4846	-0.448898	0.751083	1.01241	-0.418613	0.0771096	0.390478	-0.367662	0.947232	1.21306	-0.398582	0.861682	1.18567	-0.53201	0.976876	1.15375	-0.426357	0.770882	1.16796	-0.593357	0.718554	1.14989	-0.53109	0.0447053	0.19943	-0.403392	0.580879	1.05969	-0.348729	0.35596	0.429051	-0.359227	0.265901	0.420493	-0.428356	0.220512	0.348052	-0.363032	0.608156	0.843874	-0.463393	0.608007	0.704465	-0.44223	0.501422	0.627585	-0.426636	0.0835037	0.167574	-0.30932	0.759844	1.39463	-0.53494	0.706045	1.30959	-0.528582	0.743773	1.25064	-0.574519	0.694692	1.50795	-0.126749	0.741374	1.02442	-0.164477	0.925398	0.123842	-0.246585	0.599779	1.10613	-0.0221154	0.486844	1.22023	-0.0327758	0.538918	1.06796	-0.0353588	0.425762	1.30239	-0.0729314	0.44371	1.2921	-0.149858	1.10664	0.134916	-0.167371	0.576907	1.05635	-0.244608	0.980613	0.455854	-0.221615	0.959451	0.390159	-0.159493	0.996095	0.285671	-0.22259	0.706154	0.847796	-0.121901	0.835072	0.790277	-0.129895	0.833729	0.654314	-0.15743	1.14258	0.182435	-0.250469	0.601334	1.46691	-0.0692635	0.532336	1.42569	-0.129515	0.511476	1.37619	-0.0745696
7	0.09	0.670381	1.51825	-0.303909	0.777653	1.43617	-0.242823	0.770854	1.4845	-0.44854	0.750621	1.01482	-0.418569	0.0718705	0.421743	-0.37075	0.943594	1.20838	-0.393101	0.861367	1.18298	-0.529003	0.973885	1.14908	-0.421544	0.772088	1.16766	-0.593398	0.715978	1.15031	-0.530721	0.0291111	0.232501	-0.404743	0.58275	1.06095	-0.34869	0.357299	0.43321	-0.358306	0.270547	0.433539	-0.430716	0.214881	0.365907	-0.363064	0.612294	0.842918	-0.463374	0.61687	0.700794	-0.438896	0.513211	0.621462	-0.426922	0.0634749	0.200169	-0.309521	0.760504	1.39439	-0.535281	0.706898	1.30975	-0.529105	0.745085	1.25048	-0.574946	0.696253	1.50734	-0.125682	0.740982	1.02411	-0.16481	0.946615	0.11498	-0.243816	0.604583	1.10479	-0.0225435	0.491115	1.21837	-0.0329885	0.543981	1.06619	-0.0357791	0.428643	1.30024	-0.0728455	0.449059	1.28892	-0.149205	1.12655	0.1418	-0.168973	0.576621	1.05617	-0.243848	0.979017	0.449669	-0.222789	0.962035	0.384626	-0.159422	1.00596	0.283582	-0.226622	0.702638	0.83971	-0.118832	0.829706	0.778554	-0.126789	0.823291	0.64357	-0.156899	1.15912	0.191499	-0.252822	0.60323	1.46583	-0.0678913	0.534806	1.4239	-0.128689	0.513877	1.37423	-0.0746293
8	0.1	0.671846	1.5173	-0.302752	0.778859	1.43479	-0.24262	0.770546	1.48322	-0.4482	0.7498	1.01646	-0.418952	0.0751489	0.45318	-0.373047	0.939398	1.20062	-0.389223	0.859002	1.17818	-0.526655	0.969402	1.14091	-0.418563	0.770749	1.16617	-0.593533	0.712207	1.14993	-0.530517	0.0194732	0.267211	-0.406457	0.583878	1.05986	-0.347932	0.362579	0.437916	-0.357205	0.279265	0.44607	-0.432114	0.215446	0.383709	-0.362551	0.617295	0.840135	-0.4639	0.626799	0.696319	-0.437012	0.525745	0.613654	-0.426459	0.0498202	0.233773	-0.310576	0.760677	1.39334	-0.535349	0.706706	1.30942	-0.529557	0.744568	1.24949	-0.575189	0.698496	1.5055	-0.124571	0.740005	1.02353	-0.165286	0.954779	0.107954	-0.242107	0.611811	1.10186	-0.0220984	0.497505	1.21448	-0.0313974	0.551431	1.06271	-0.0348656	0.432989	1.29606	-0.0698331	0.45471	1.28366	-0.14653	1.13284	0.14446	-0.170395	0.575352	1.05342	-0.242751	0.975077	0.443901	-0.223845	0.961796	0.380365	-0.160254	1.00787	0.280863	-0.230458	0.697667	0.830809	-0.115682	0.822621	0.765721	-0.123334	0.813848	0.634106	-0.157546	1.16366	0.195169	-0.254937	0.606022	1.46333	-0.0659257	0.537597	1.42065	-0.126668	0.517429	1.37044	-0.0730096
